<?xml version="1.0" encoding="UTF-8" standalone="no"?>
<svg
   width="356.74478"
   height="393.78299"
   viewBox="0 0 178.37239 196.89149"
   fill="none"
   version="1.1"
   id="svg5"
   xmlns="http://www.w3.org/2000/svg"
   xmlns:svg="http://www.w3.org/2000/svg">
  <defs
     id="defs5" />
  <path
     id="path1"
     style="color:#000000;fill:#000000;fill-opacity:0.9;stroke-linecap:round;stroke-linejoin:round;-inkscape-stroke:none"
     d="M 67.442382 0.001953125 C 53.102395 -0.12367275 39.596689 5.3941248 27.762695 15.836914 A 6 6 0 0 0 27.234375 24.305664 A 6 6 0 0 0 35.703124 24.833984 C 45.779141 15.942505 56.044878 11.903992 67.33789 12.00293 A 6 6 0 0 0 73.390624 6.055664 A 6 6 0 0 0 67.442382 0.001953125 z M 144.83008 34.683593 A 6 6 0 0 0 141.95508 35.860351 A 6 6 0 0 0 140.81543 44.268554 C 150.75958 57.337138 160.2179 66.000757 170.32031 69.677733 A 6 6 0 0 0 178.01074 66.091796 A 6 6 0 0 0 174.4248 58.401366 C 167.97361 56.053325 159.57965 49.113773 150.36426 37.002929 A 6 6 0 0 0 146.39648 34.689453 A 6 6 0 0 0 144.83008 34.683593 z M 48.070312 46.457031 A 8 8 0 0 0 40.901367 51.71289 C 38.133147 59.31851 34.67078 67.484382 33.192382 77.010741 A 8 8 0 0 0 39.871093 86.1416 A 8 8 0 0 0 49.004882 79.462889 C 50.098888 72.413457 53.006696 65.23518 55.936523 57.185546 A 8 8 0 0 0 51.155273 46.93164 A 8 8 0 0 0 48.070312 46.457031 z M 134.15429 70.229491 A 8 8 0 0 0 126.98633 75.48535 C 123.96774 83.778871 122.68824 91.162614 119.85547 95.624999 A 8 8 0 0 0 122.32226 106.66504 A 8 8 0 0 0 133.3623 104.19922 C 138.6808 95.821152 139.77776 87.122554 142.02148 80.958007 A 8 8 0 0 0 137.23926 70.704101 A 8 8 0 0 0 134.15429 70.229491 z M 7.2343749 127.2998 A 8 8 0 0 0 4.8105468 127.92676 A 8 8 0 0 0 0.66210937 138.45117 C 4.1712335 146.52875 8.848467 156.29021 15.601562 164.23047 C 22.354661 172.17071 32.656889 178.82372 44.567382 176.33594 C 54.997203 174.15796 62.658625 168.64871 68.960937 165.33203 C 75.263244 162.01536 78.985386 160.62951 84.671874 162.69922 C 91.633552 165.23306 95.210005 168.40868 97.92871 172.71386 C 100.64742 177.01905 102.36359 182.87623 103.65527 190.26855 A 8 8 0 0 0 112.91308 196.77246 A 8 8 0 0 0 119.41699 187.51465 C 117.97489 179.26146 115.95284 171.2933 111.45508 164.1709 C 106.95732 157.0485 99.836999 151.19184 90.14453 147.66406 C 79.176872 143.67216 69.074107 147.19098 61.507812 151.17285 C 53.941503 155.15473 47.691078 159.33878 41.297851 160.67383 C 36.38495 161.69999 32.605801 159.52546 27.791015 153.86426 C 22.976236 148.20306 18.600279 139.58805 15.336914 132.07617 A 8 8 0 0 0 7.2343749 127.2998 z " />
</svg>
